# xmcd CD database file
# Copyright (C) 1996 Ti Kan
#
# Track frame offsets:
# 	183
# 	14308
# 	29428
# 	43725
# 	57310
# 	72005
# 	85878
# 	99553
# 	108920
# 	121443
# 	134070
# 	146248
# 	157655
# 	168030
#
# Disc length: 2391 seconds
#
# Revision: 1
# Processed by: cddbd v1.4b41PL1 Copyright (c) Steve Scherf et al.
# Submitted via: DiscPlay 3.3.1
#
DISCID=ba09550e
DTITLE=Jimmy Rogers - Hard Working Man
DYEAR=1900
DGENRE=
TTITLE0=I Used To Have A Woman
TTITLE1=Hard Working Man
TTITLE2=My Little Machine
TTITLE3=Give Love Another Chance
TTITLE4=What's The Matter
TTITLE5=Blues Leave Me Alone
TTITLE6=Sloppy Drunk
TTITLE7=If It Ain't Me
TTITLE8=One Kiss
TTITLE9=I Can't Believe
TTITLE10=What Have I Done
TTITLE11=Trace Of You
TTITLE12=Don't Turn Me Down
TTITLE13=Don't You Know My Baby
EXTD=
EXTT0=
EXTT1=
EXTT2=
EXTT3=
EXTT4=
EXTT5=
EXTT6=
EXTT7=
EXTT8=
EXTT9=
EXTT10=
EXTT11=
EXTT12=
EXTT13=
PLAYORDER=
